<?xml version="1.0" encoding="utf-8"?>
<!-- Generator: Adobe Illustrator 22.0.0, SVG Export Plug-In . SVG Version: 6.00 Build 0)  -->
<svg version="1.1" id="Layer_1" xmlns="http://www.w3.org/2000/svg" xmlns:xlink="http://www.w3.org/1999/xlink" x="0px" y="0px"
	 viewBox="0 0 96 96" style="enable-background:new 0 0 96 96;" xml:space="preserve">
<style type="text/css">
	.st0{fill:#ff992a;}
</style>
<title>software</title>
<path class="st0" d="M90.2,75.4H7.3c-1.6,0-2.8-1.3-2.8-2.8V12.3c0-1.6,1.3-2.8,2.8-2.8h82.9c1.6,0,2.8,1.3,2.8,2.8v60.3
	C93,74.1,91.7,75.4,90.2,75.4z M7.3,11.4c-0.5,0-0.9,0.4-0.9,0.9v60.2c0,0.5,0.4,0.9,0.9,0.9c0,0,0,0,0,0h82.9
	c0.5,0,0.9-0.4,0.9-0.9V12.3c0-0.5-0.4-0.9-0.9-0.9L7.3,11.4z"/>
<rect x="57.2" y="78.2" class="st0" width="1.9" height="7.5"/>
<rect x="40.3" y="78.2" class="st0" width="1.9" height="7.5"/>
<rect x="33.7" y="84.8" class="st0" width="32" height="1.9"/>
<rect x="5.4" y="62.2" class="st0" width="86.6" height="1.9"/>
<rect x="46.9" y="67.9" class="st0" width="5.7" height="1.9"/>
<rect x="11.1" y="17" class="st0" width="15.1" height="1.9"/>
<rect x="18.6" y="24.6" class="st0" width="5.6" height="1.9"/>
<rect x="26.1" y="24.6" class="st0" width="22.6" height="1.9"/>
<rect x="18.6" y="32.1" class="st0" width="16.9" height="1.9"/>
<rect x="37.5" y="32.1" class="st0" width="7.5" height="1.9"/>
<rect x="18.6" y="47.2" class="st0" width="5.6" height="1.9"/>
<rect x="26.1" y="47.2" class="st0" width="35.8" height="1.9"/>
<rect x="18.6" y="54.7" class="st0" width="16.9" height="1.9"/>
<rect x="37.5" y="54.7" class="st0" width="7.5" height="1.9"/>
<rect x="11.1" y="39.6" class="st0" width="17" height="1.9"/>
</svg>
