<?xml version="1.0" encoding="utf-8"?>
<!-- Generator: Adobe Illustrator 22.0.0, SVG Export Plug-In . SVG Version: 6.00 Build 0)  -->
<svg version="1.1" id="Layer_1" xmlns="http://www.w3.org/2000/svg" xmlns:xlink="http://www.w3.org/1999/xlink" x="0px" y="0px"
	 viewBox="0 0 96 96" style="enable-background:new 0 0 96 96;" xml:space="preserve">
<style type="text/css">
	.st0{fill:#ff992a;}
	.st1{fill:#ff992a;}
</style>
<title>solution</title>
<path class="st0" d="M74.2,67.7H54.4c-1.8,0.1-3.4-1.3-3.4-3.2V42.3c0-1.4-0.6-2.8-1.5-3.9l-2.6-2.8c-1.2-1.3-1.9-3-1.9-4.8v-9.4
	c0.1-2.3,2-4,4.3-3.9h30c2.3-0.1,4.2,1.7,4.3,3.9v9.4c0,1.8-0.7,3.5-1.9,4.8l-2.6,2.8c-1,1.1-1.5,2.5-1.5,3.9v22.3
	C77.5,66.4,76,67.8,74.2,67.7z M49.3,18.6c-1.6-0.1-2.9,1.1-3,2.7c0,0,0,0,0,0v9.4c0,1.5,0.6,2.9,1.6,4l2.5,2.8
	c1.2,1.3,1.9,3,1.9,4.8v22.3c0.1,1.1,1,2,2.2,1.9h19.8c1.1,0.1,2.1-0.8,2.2-1.9V42.3c0-1.8,0.7-3.5,1.9-4.8l2.6-2.8
	c1-1.1,1.6-2.5,1.6-4v-9.4c-0.1-1.6-1.4-2.8-3-2.7c0,0,0,0,0,0H49.3z M74.1,62.1h-5.7v-5.4h5.7V62.1z M69.6,60.9h3.2V58h-3.2V60.9z
	 M67.2,62.1h-5.7v-5.4h5.7V62.1z M62.7,60.9h3.2V58h-3.2V60.9z M60.3,62.1h-5.7v-5.4h5.7V62.1z M55.8,60.9H59V58h-3.2V60.9z
	 M74.1,55.6h-5.7v-5.4h5.7V55.6z M69.6,54.4h3.2v-2.9h-3.2V54.4z M67.2,55.6h-5.7v-5.4h5.7V55.6z M62.7,54.4h3.2v-2.9h-3.2V54.4z
	 M60.3,55.6h-5.7v-5.4h5.7V55.6z M55.8,54.4H59v-2.9h-3.2V54.4z M74.1,49.1h-5.7v-5.4h5.7V49.1z M69.6,47.8h3.2V45h-3.2V47.8z
	 M67.2,49.1h-5.7v-5.4h5.7V49.1z M62.7,47.8h3.2V45h-3.2V47.8z M60.3,49.1h-5.7v-5.4h5.7V49.1z M55.8,47.8H59V45h-3.2V47.8z
	 M73.2,35.1H55.4c-2.6,0.1-4.8-2-4.9-4.6v-6.7c0-1.4,1.2-2.4,2.5-2.4h22.5c1.4,0,2.5,1,2.5,2.4v6.7C78,33.1,75.8,35.1,73.2,35.1
	L73.2,35.1z M53,22.6c-0.7,0-1.2,0.5-1.3,1.1v6.7c0.1,1.9,1.7,3.4,3.6,3.3h17.8c1.9,0.1,3.5-1.4,3.6-3.3v-6.7c0-0.7-0.6-1.2-1.3-1.1
	L53,22.6z"/>
<path class="st0" d="M57.3,16.8h-6.5V9.4c0-1.3,1.1-2.3,2.4-2.3h4.1L57.3,16.8z M52,15.6H56V8.4h-2.9c-0.6,0-1.1,0.4-1.1,1
	c0,0,0,0,0,0L52,15.6z"/>
<path class="st0" d="M77.4,16.8h-6v-4.4c0-0.2-0.5-0.2-0.5,0v4.4H61V7.1h14.1c1.3,0,2.3,1,2.4,2.2c0,0,0,0,0,0V16.8z M72.7,15.6h3.4
	V9.4c0-0.6-0.5-1-1.1-1c0,0,0,0,0,0H62.3v7.1h7.4v-3.1c0.1-0.9,0.8-1.5,1.7-1.4c0.8,0.1,1.4,0.7,1.4,1.4V15.6z"/>
<path class="st1" d="M83.2,50.2v24.4c0,0.4-0.4,0.7-0.8,0.8H14.8c-0.4,0-0.8-0.3-0.8-0.8V25.5c0-0.4,0.3-0.8,0.8-0.8l26.6,0
	c0-0.5,0-1,0-1.5H14.8c-1.3,0-2.3,1-2.3,2.3v49.2c0,1.3,1,2.3,2.3,2.3h67.6c1.3,0,2.3-1,2.3-2.3V50.3C84.3,50.4,83.7,50.3,83.2,50.2
	z"/>
<rect x="55.6" y="79.3" class="st1" width="1.5" height="6.1"/>
<rect x="41.7" y="79.3" class="st1" width="1.5" height="6.1"/>
<rect x="36.3" y="84.7" class="st1" width="26.1" height="1.5"/>
<path class="st1" d="M43.9,66.2H13.3v1.5h30.6C43.9,67.2,43.9,66.7,43.9,66.2z"/>
<rect x="17.9" y="29.3" class="st1" width="12.3" height="1.5"/>
<rect x="24" y="35.5" class="st1" width="4.6" height="1.5"/>
<path class="st1" d="M41.6,35.5H30.2V37h11.5C41.6,36.5,41.6,36,41.6,35.5z"/>
<rect x="24" y="41.6" class="st1" width="13.8" height="1.5"/>
<rect x="24" y="53.9" class="st1" width="4.6" height="1.5"/>
<path class="st1" d="M43.2,53.9h-13v1.5h13.1C43.3,55,43.3,54.4,43.2,53.9z"/>
<rect x="24" y="60.1" class="st1" width="13.8" height="1.5"/>
<path class="st1" d="M42.6,60.1h-3.1v1.5H43C42.8,61.2,42.6,60.6,42.6,60.1z"/>
<rect x="17.9" y="47.8" class="st1" width="13.8" height="1.5"/>
</svg>
