<?xml version="1.0" encoding="utf-8"?>
<!-- Generator: Adobe Illustrator 22.0.0, SVG Export Plug-In . SVG Version: 6.00 Build 0)  -->
<svg version="1.1" id="Layer_1" xmlns="http://www.w3.org/2000/svg" xmlns:xlink="http://www.w3.org/1999/xlink" x="0px" y="0px"
	 viewBox="0 0 96 96" style="enable-background:new 0 0 96 96;" xml:space="preserve">
<style type="text/css">
	.st0{fill:#ff992a;}
</style>
<title>product</title>
<path class="st0" d="M63.2,86.3h-25c-2.3,0.1-4.2-1.7-4.3-4V54.1c0-1.8-0.7-3.6-1.9-4.9l-3.2-3.6c-1.5-1.7-2.4-3.8-2.4-6.1V27.6
	c0.1-2.9,2.6-5.1,5.4-5h37.9c2.9-0.1,5.3,2.1,5.5,5v11.9c0,2.3-0.9,4.4-2.4,6.1l-3.2,3.6c-1.2,1.3-1.9,3.1-1.9,4.9v28.2
	C67.4,84.6,65.5,86.4,63.2,86.3z M31.7,24.2c-2-0.1-3.6,1.4-3.8,3.3v11.9c0,1.9,0.7,3.6,2,5l3.2,3.6c1.5,1.6,2.3,3.8,2.4,6v28.2
	c0.1,1.4,1.3,2.5,2.7,2.4c0,0,0,0,0,0h25c1.4,0.1,2.6-1,2.7-2.4c0,0,0,0,0,0V54.1c0-2.2,0.9-4.4,2.4-6l3.2-3.6c1.3-1.4,2-3.2,2-5
	V27.6c-0.1-2-1.9-3.5-3.8-3.3H31.7z M63.1,79.2h-7.3v-6.8h7.3V79.2z M57.4,77.6h4V74h-4V77.6z M54.4,79.2h-7.3v-6.8h7.3V79.2z
	 M48.7,77.6h4V74h-4L48.7,77.6z M45.7,79.2h-7.3v-6.8h7.3L45.7,79.2z M40,77.6h4V74h-4L40,77.6z M63.1,71h-7.3v-6.8h7.3L63.1,71z
	 M57.4,69.4h4v-3.6h-4L57.4,69.4z M54.4,71h-7.3v-6.8h7.3V71z M48.7,69.4h4v-3.6h-4L48.7,69.4z M45.7,71h-7.3v-6.8h7.3L45.7,71z
	 M40,69.4h4v-3.6h-4L40,69.4z M63.1,62.8h-7.3v-6.8h7.3L63.1,62.8z M57.4,61.2h4v-3.6h-4L57.4,61.2z M54.4,62.8h-7.3v-6.8h7.3V62.8z
	 M48.7,61.2h4v-3.6h-4L48.7,61.2z M45.7,62.8h-7.3v-6.8h7.3L45.7,62.8z M40,61.2h4v-3.6h-4L40,61.2z M61.9,45H39.5
	c-3.3,0.1-6.1-2.5-6.2-5.8v-8.4c0.1-1.7,1.5-3.1,3.2-3H65c1.7,0,3.1,1.3,3.2,3v8.4C68,42.5,65.3,45.1,61.9,45L61.9,45z M36.5,29.3
	c-0.8,0-1.5,0.6-1.6,1.4c0,0,0,0,0,0v8.4c0.1,2.4,2.2,4.3,4.6,4.3c0,0,0,0,0,0h22.4c2.4,0.1,4.5-1.8,4.6-4.2c0,0,0,0,0,0v-8.4
	c0-0.8-0.7-1.5-1.5-1.4c0,0,0,0,0,0H36.5z"/>
<path class="st0" d="M41.8,22h-8.2v-9.4c0-1.6,1.4-2.9,3-2.8c0,0,0,0,0,0h5.2V22z M35.2,20.4h5v-9h-3.6c-0.7,0-1.3,0.5-1.4,1.2
	c0,0,0,0,0,0L35.2,20.4z"/>
<path class="st0" d="M67.3,22h-7.5v-5.5c0-0.3-0.7-0.3-0.7,0V22H46.5V9.7h17.8c1.6,0,3,1.2,3,2.8c0,0,0,0,0,0V22z M61.4,20.4h4.3
	v-7.8c0-0.7-0.6-1.3-1.3-1.2H48.1v9h9.4v-3.9c0-1.1,0.9-2,2-2c1.1,0,2,0.9,2,2L61.4,20.4z"/>
</svg>
